# xmcd
#
# Track frame offsets:
#	150
#	41122
#	75850
#	101756
#	113941
#	136579
#	162567
#	187421
#	208033
#
# Disc length: 3033 seconds
#
# Revision: 1
# Processed by: cddbd v1.5.2PL0 Copyright (c) Steve Scherf et al.
# Submitted via: audiograbber 1.83.01
#
DISCID=7b0bd709
DTITLE=Tindersticks - The Something Rain
DYEAR=2012
DGENRE=
TTITLE0=Chocolate
TTITLE1=Show me Everything
TTITLE2=This Fire of Autumn
TTITLE3=A Night To Still
TTITLE4=Slippin' Shoes
TTITLE5=Medicine
TTITLE6=Frozen
TTITLE7=Come Inside
TTITLE8=Goodbye Joe
EXTD=
EXTT0=
EXTT1=
EXTT2=
EXTT3=
EXTT4=
EXTT5=
EXTT6=
EXTT7=
EXTT8=
PLAYORDER=
